<svg xmlns="http://www.w3.org/2000/svg"  viewBox="0 0 50 50" width="50px" height="50px"><path d="M 7.4121094 2.0253906 C 7.2072244 1.9929838 7.000399 2.0656411 6.7929688 2.0898438 A 1.0001 1.0001 0 0 0 6.5878906 2.1113281 C 6.5878906 2.1113281 6.5859375 2.1113281 6.5859375 2.1113281 C 6.4749272 2.1357016 6.3637637 2.1025414 6.2539062 2.1464844 C 5.4875942 2.4530092 5 3.3214409 5 4.1992188 L 5 24.900391 L 5 46 C 5 46.709259 5.3348561 47.465468 6 47.8125 C 6.098935 47.86412 6.209478 47.839624 6.3125 47.871094 A 1.0001 1.0001 0 0 0 6.3203125 47.873047 A 1.0001 1.0001 0 0 0 6.5136719 47.908203 A 1.0001 1.0001 0 0 0 6.515625 47.908203 C 7.047483 48.005853 7.5990518 47.944323 8.0859375 47.673828 C 8.6321498 47.370377 13.099369 44.791154 17.537109 42.228516 C 21.974108 39.666305 26.297383 37.166851 26.298828 37.166016 L 35.5 31.867188 A 1.0001 1.0001 0 0 0 35.5 31.865234 C 35.5 31.865234 43.238792 27.40321 44.314453 26.757812 C 44.995199 26.349366 45.525391 25.694054 45.525391 24.912109 C 45.525391 24.130165 45.017072 23.51946 44.429688 23.152344 A 1.0001 1.0001 0 0 0 44.384766 23.125 C 43.583727 22.679978 35.402344 17.935547 35.402344 17.935547 A 1.0001 1.0001 0 0 0 35.398438 17.933594 L 26.203125 12.634766 L 26.199219 12.632812 C 26.195519 12.630612 22.025635 10.20962 17.726562 7.7226562 C 15.576069 6.4786209 13.393569 5.2189863 11.685547 4.2382812 C 10.012447 3.2776276 8.9445843 2.6622456 8.5136719 2.4433594 C 8.5136719 2.4433594 8.5117188 2.4433594 8.5117188 2.4433594 C 8.1675714 2.2372007 7.7948038 2.0859217 7.4121094 2.0253906 z M 7 4.7089844 L 27.337891 24.900391 L 7 45.091797 L 7 24.900391 L 7 4.7089844 z M 11.697266 6.5546875 C 13.237746 7.4410207 14.934177 8.4173806 16.724609 9.453125 C 21.023623 11.940054 25.197266 14.365234 25.197266 14.365234 A 1.0001 1.0001 0 0 0 25.201172 14.367188 L 33.265625 19.013672 L 28.755859 23.490234 L 11.697266 6.5546875 z M 35.0625 20.046875 C 36.074882 20.634465 42.383812 24.298398 43.369141 24.847656 C 43.4282 24.884568 43.432508 24.894762 43.457031 24.916016 C 43.422895 24.946994 43.399296 24.974486 43.285156 25.042969 C 42.423912 25.559715 36.035269 29.247026 35.099609 29.787109 L 30.175781 24.900391 L 35.0625 20.046875 z M 28.755859 26.308594 L 33.302734 30.822266 L 25.300781 35.433594 A 1.0001 1.0001 0 0 0 25.298828 35.433594 C 25.298828 35.433594 20.974369 37.933733 16.537109 40.496094 C 14.215277 41.83687 13.39507 42.30785 11.607422 43.337891 L 28.755859 26.308594 z"/></svg>